<mxfile host="app.diagrams.net" modified="2022-03-11T11:51:17.230Z" agent="5.0 (Macintosh)" etag="XI8mGwIZuheYigq0Wm4u" version="17.1.1" type="github">
  <diagram name="Page-1" id="2a216829-ef6e-dabb-86c1-c78162f3ba2b">
    <mxGraphModel dx="1377" dy="716" grid="1" gridSize="10" guides="1" tooltips="1" connect="1" arrows="1" fold="1" page="1" pageScale="1" pageWidth="850" pageHeight="1100" background="none" math="0" shadow="0">
      <root>
        <mxCell id="0" />
        <mxCell id="1" parent="0" />
        <mxCell id="N_iRXGm_kxti0tgLThqO-1" value="" style="rounded=0;whiteSpace=wrap;html=1;strokeWidth=5;" vertex="1" parent="1">
          <mxGeometry x="130" y="210" width="920" height="380" as="geometry" />
        </mxCell>
        <mxCell id="N_iRXGm_kxti0tgLThqO-2" value="ENTRANCE" style="rounded=0;whiteSpace=wrap;html=1;direction=south;rotation=90;" vertex="1" parent="1">
          <mxGeometry x="80" y="365" width="95" height="35" as="geometry" />
        </mxCell>
        <mxCell id="N_iRXGm_kxti0tgLThqO-4" value="RECEIVE AREA&lt;br&gt;&lt;br&gt;UNSORTED THINGS ARE HERE" style="rounded=0;whiteSpace=wrap;html=1;fillColor=#f8cecc;strokeColor=#b85450;fontStyle=1" vertex="1" parent="1">
          <mxGeometry x="130" y="430.5" width="270" height="160" as="geometry" />
        </mxCell>
        <mxCell id="N_iRXGm_kxti0tgLThqO-21" value="FINE SORTING AREA" style="rounded=0;whiteSpace=wrap;html=1;fillColor=#fff2cc;strokeColor=#d6b656;fontStyle=1" vertex="1" parent="1">
          <mxGeometry x="770" y="430" width="280" height="160" as="geometry" />
        </mxCell>
        <mxCell id="N_iRXGm_kxti0tgLThqO-3" value="EXIT" style="rounded=0;whiteSpace=wrap;html=1;direction=south;rotation=90;" vertex="1" parent="1">
          <mxGeometry x="1000" y="365" width="95" height="35" as="geometry" />
        </mxCell>
        <mxCell id="N_iRXGm_kxti0tgLThqO-22" value="COARSE SORTING AREA" style="rounded=0;whiteSpace=wrap;html=1;fillColor=#ffe6cc;strokeColor=#d79b00;verticalAlign=top;align=left;fontStyle=1" vertex="1" parent="1">
          <mxGeometry x="400" y="430" width="370" height="160" as="geometry" />
        </mxCell>
        <mxCell id="N_iRXGm_kxti0tgLThqO-23" value="&lt;div&gt;ADMINISTRATIVE AREA&lt;/div&gt;&lt;div&gt;* Printer&lt;/div&gt;&lt;div&gt;* Coffee&lt;/div&gt;&lt;div&gt;* Plastic bags&lt;/div&gt;" style="rounded=0;whiteSpace=wrap;html=1;fillColor=#dae8fc;strokeColor=#6c8ebf;" vertex="1" parent="1">
          <mxGeometry x="945" y="210" width="105" height="96.92" as="geometry" />
        </mxCell>
        <mxCell id="N_iRXGm_kxti0tgLThqO-24" value="&lt;div&gt;BOXES&lt;/div&gt;&lt;div&gt;* Plastic&lt;/div&gt;&lt;div&gt;* Boxes ready to be built&lt;br&gt;&lt;/div&gt;" style="rounded=0;whiteSpace=wrap;html=1;fillColor=#dae8fc;strokeColor=#6c8ebf;" vertex="1" parent="1">
          <mxGeometry x="840" y="210" width="105" height="96.92" as="geometry" />
        </mxCell>
        <mxCell id="N_iRXGm_kxti0tgLThqO-26" value="READY FOR SHIPPING AREA" style="rounded=0;whiteSpace=wrap;html=1;fillColor=#d5e8d4;strokeColor=#82b366;fontStyle=1" vertex="1" parent="1">
          <mxGeometry x="650" y="210" width="190" height="120" as="geometry" />
        </mxCell>
        <mxCell id="N_iRXGm_kxti0tgLThqO-27" value="" style="group" vertex="1" connectable="0" parent="1">
          <mxGeometry x="630" y="430" width="32" height="160" as="geometry" />
        </mxCell>
        <mxCell id="N_iRXGm_kxti0tgLThqO-7" value="WOMEN CLOTHES" style="html=1;whiteSpace=wrap;shape=isoCube2;backgroundOutline=1;isoAngle=15;labelPosition=left;verticalLabelPosition=middle;align=right;verticalAlign=middle;" vertex="1" parent="N_iRXGm_kxti0tgLThqO-27">
          <mxGeometry y="128" width="32" height="32" as="geometry" />
        </mxCell>
        <mxCell id="N_iRXGm_kxti0tgLThqO-8" value="MEN&lt;br&gt;CLOTHES" style="html=1;whiteSpace=wrap;shape=isoCube2;backgroundOutline=1;isoAngle=15;labelPosition=left;verticalLabelPosition=middle;align=right;verticalAlign=middle;" vertex="1" parent="N_iRXGm_kxti0tgLThqO-27">
          <mxGeometry y="96" width="32" height="32" as="geometry" />
        </mxCell>
        <mxCell id="N_iRXGm_kxti0tgLThqO-9" value="DUVETS" style="html=1;whiteSpace=wrap;shape=isoCube2;backgroundOutline=1;isoAngle=15;labelPosition=left;verticalLabelPosition=middle;align=right;verticalAlign=middle;" vertex="1" parent="N_iRXGm_kxti0tgLThqO-27">
          <mxGeometry y="64" width="32" height="32" as="geometry" />
        </mxCell>
        <mxCell id="N_iRXGm_kxti0tgLThqO-10" value="SLEEPING BAG" style="html=1;whiteSpace=wrap;shape=isoCube2;backgroundOutline=1;isoAngle=15;labelPosition=left;verticalLabelPosition=middle;align=right;verticalAlign=middle;" vertex="1" parent="N_iRXGm_kxti0tgLThqO-27">
          <mxGeometry y="32" width="32" height="32" as="geometry" />
        </mxCell>
        <mxCell id="N_iRXGm_kxti0tgLThqO-11" value="&lt;div&gt;KIDS CLOTHES&lt;/div&gt;" style="html=1;whiteSpace=wrap;shape=isoCube2;backgroundOutline=1;isoAngle=15;align=right;labelPosition=left;verticalLabelPosition=middle;verticalAlign=middle;" vertex="1" parent="N_iRXGm_kxti0tgLThqO-27">
          <mxGeometry width="32" height="32" as="geometry" />
        </mxCell>
        <mxCell id="N_iRXGm_kxti0tgLThqO-28" value="" style="group" vertex="1" connectable="0" parent="1">
          <mxGeometry x="490" y="450" width="34.94" height="138" as="geometry" />
        </mxCell>
        <mxCell id="N_iRXGm_kxti0tgLThqO-5" value="NON&lt;br&gt;CLOTHES" style="verticalLabelPosition=middle;html=1;verticalAlign=middle;align=right;shape=mxgraph.floorplan.table;rotation=0;labelPosition=left;" vertex="1" parent="N_iRXGm_kxti0tgLThqO-28">
          <mxGeometry width="34.94" height="68.12658227848101" as="geometry" />
        </mxCell>
        <mxCell id="N_iRXGm_kxti0tgLThqO-6" value="CLOTHES" style="verticalLabelPosition=middle;html=1;verticalAlign=middle;align=right;shape=mxgraph.floorplan.table;rotation=0;labelPosition=left;" vertex="1" parent="N_iRXGm_kxti0tgLThqO-28">
          <mxGeometry y="68.12658227848101" width="34.94" height="69.87341772151899" as="geometry" />
        </mxCell>
        <mxCell id="N_iRXGm_kxti0tgLThqO-29" value="PALLETS UNDER PACKAGING AREA" style="rounded=0;whiteSpace=wrap;html=1;fillColor=#E6FFCC;strokeColor=#82b366;fontStyle=1" vertex="1" parent="1">
          <mxGeometry x="270" y="210" width="380" height="120" as="geometry" />
        </mxCell>
        <mxCell id="N_iRXGm_kxti0tgLThqO-30" value="IRRELEVANT AREA" style="rounded=0;whiteSpace=wrap;html=1;fillColor=#f8cecc;strokeColor=#b85450;fontStyle=1" vertex="1" parent="1">
          <mxGeometry x="130" y="210" width="140" height="120" as="geometry" />
        </mxCell>
        <mxCell id="N_iRXGm_kxti0tgLThqO-14" value="" style="verticalLabelPosition=middle;html=1;verticalAlign=middle;align=right;shape=mxgraph.floorplan.table;rotation=0;labelPosition=left;" vertex="1" parent="1">
          <mxGeometry x="770" y="450" width="35.125" height="68.49375" as="geometry" />
        </mxCell>
        <mxCell id="N_iRXGm_kxti0tgLThqO-15" value="" style="verticalLabelPosition=middle;html=1;verticalAlign=middle;align=right;shape=mxgraph.floorplan.table;rotation=0;labelPosition=left;" vertex="1" parent="1">
          <mxGeometry x="770" y="520.25" width="35.125" height="70.25" as="geometry" />
        </mxCell>
        <mxCell id="N_iRXGm_kxti0tgLThqO-16" value="" style="verticalLabelPosition=middle;html=1;verticalAlign=middle;align=right;shape=mxgraph.floorplan.table;rotation=0;labelPosition=left;" vertex="1" parent="1">
          <mxGeometry x="1014.875" y="522.01" width="35.125" height="68.49375" as="geometry" />
        </mxCell>
        <mxCell id="N_iRXGm_kxti0tgLThqO-18" value="" style="verticalLabelPosition=middle;html=1;verticalAlign=middle;align=right;shape=mxgraph.floorplan.table;rotation=90;labelPosition=left;" vertex="1" parent="1">
          <mxGeometry x="822.6875" y="538.690625" width="35.125" height="68.49375" as="geometry" />
        </mxCell>
        <mxCell id="N_iRXGm_kxti0tgLThqO-19" value="" style="verticalLabelPosition=middle;html=1;verticalAlign=middle;align=right;shape=mxgraph.floorplan.table;rotation=0;labelPosition=left;" vertex="1" parent="1">
          <mxGeometry x="1014.875" y="454.39437499999997" width="35.125" height="68.49375" as="geometry" />
        </mxCell>
        <mxCell id="N_iRXGm_kxti0tgLThqO-20" value="" style="verticalLabelPosition=middle;html=1;verticalAlign=middle;align=right;shape=mxgraph.floorplan.table;rotation=90;labelPosition=left;" vertex="1" parent="1">
          <mxGeometry x="892.9375" y="538.690625" width="35.125" height="68.49375" as="geometry" />
        </mxCell>
        <mxCell id="N_iRXGm_kxti0tgLThqO-32" value="" style="verticalLabelPosition=middle;html=1;verticalAlign=middle;align=right;shape=mxgraph.floorplan.table;rotation=90;labelPosition=left;" vertex="1" parent="1">
          <mxGeometry x="962.11" y="538.64" width="35.13" height="68.59" as="geometry" />
        </mxCell>
        <mxCell id="N_iRXGm_kxti0tgLThqO-33" value="GARBAGE AREA" style="rounded=0;whiteSpace=wrap;html=1;fillColor=#f8cecc;strokeColor=#b85450;fontStyle=1" vertex="1" parent="1">
          <mxGeometry x="1060" y="430.5" width="190" height="159.5" as="geometry" />
        </mxCell>
      </root>
    </mxGraphModel>
  </diagram>
</mxfile>
